<svg width="87" height="73" viewBox="0 0 87 73" fill="none" xmlns="http://www.w3.org/2000/svg">
<path d="M31.3378 15.9155C21.1833 15.9155 13.5259 23.5184 13.5259 33.6006C13.5259 43.8493 20.9886 51.2874 31.2695 51.2874C41.424 51.2874 49.0814 43.6845 49.0814 33.6006C49.0814 23.3537 41.6187 15.9155 31.3378 15.9155ZM42.7424 33.6006C42.7424 40.5413 37.9149 45.5774 31.2729 45.5774C24.6641 45.5774 19.8682 40.5413 19.8682 33.6006C19.8682 26.66 24.6641 21.6255 31.2729 21.6255C37.9199 21.6255 42.7424 26.6617 42.7424 33.6006Z" fill="white"/>
<path d="M7.31214 16.7278H1.09961V50.4736H7.31214V16.7278Z" fill="white"/>
<path d="M57.948 58.0518H55.3096V71.8242H57.948V58.0518Z" fill="white"/>
<path d="M64.3356 72.0286C63.1803 72.0286 62.3074 71.726 61.717 71.1209C61.1266 70.5157 60.8309 69.6146 60.8298 68.4174V63.1934H59.1401V61.2347H60.8298V58.0699H63.3867V61.2347H65.7788V63.1934H63.3867V68.1917C63.3867 68.8046 63.5104 69.2571 63.7579 69.5492C64.0054 69.8414 64.391 69.9902 64.9149 69.9957C65.313 69.9962 65.7068 69.9131 66.0701 69.7518V71.7288C65.5159 71.9315 64.9297 72.0352 64.3389 72.0352" fill="white"/>
<path d="M70.5848 72.0893C69.5394 72.0893 68.7009 71.8104 68.0695 71.2524C67.438 70.6945 67.1217 69.946 67.1206 69.007C67.1206 67.8099 67.6017 66.8813 68.5639 66.2212C69.526 65.5611 70.8938 65.2317 72.6673 65.2328H73.1201C73.2715 65.2328 73.4147 65.2328 73.5529 65.2525C73.5118 64.4914 73.2899 63.9269 72.887 63.559C72.4842 63.1911 71.886 63.0076 71.0925 63.0087C70.0171 63.0245 68.9647 63.3199 68.0412 63.8654V61.8259C69.1016 61.2684 70.283 60.9745 71.4837 60.9692C72.9264 60.9692 74.0401 61.3602 74.8247 62.1422C75.6093 62.9242 76.001 64.0433 75.9999 65.4996V71.8241H73.8825L73.7376 70.6C73.3966 71.0715 72.9377 71.4473 72.4059 71.6906C71.8341 71.9596 71.2079 72.096 70.5748 72.0893H70.5848ZM71.2756 70.2936C71.5777 70.2979 71.8774 70.2402 72.1559 70.1243C72.4343 70.0083 72.6855 69.8366 72.8937 69.6198C73.1102 69.4066 73.2809 69.1522 73.3954 68.8718C73.5098 68.5915 73.5657 68.2912 73.5595 67.9889V66.9477C73.423 66.9477 73.2815 66.9477 73.1384 66.9378C72.9952 66.928 72.8454 66.9263 72.6939 66.9263C71.6773 66.9263 70.8972 67.0795 70.3534 67.3859C70.1387 67.504 69.955 67.6701 69.8168 67.871C69.6786 68.0718 69.5897 68.3019 69.5574 68.5428C69.525 68.7837 69.5501 69.0288 69.6305 69.2584C69.7109 69.488 69.8444 69.6959 70.0204 69.8653C70.3691 70.1621 70.8195 70.3154 71.2789 70.2936" fill="white"/>
<path d="M72.7286 15.9155C69.3993 15.9155 64.3171 17.441 61.4921 21.4904V16.7277H55.3096V50.4735H61.5221V31.1987C61.5053 29.9363 61.7421 28.6831 62.2187 27.512C62.6952 26.3409 63.4021 25.2751 64.2982 24.3765C65.1943 23.4779 66.2619 22.7644 67.4389 22.2775C68.6159 21.7905 69.8789 21.5397 71.1547 21.5397C72.4304 21.5397 73.6934 21.7905 74.8705 22.2775C76.0475 22.7644 77.115 23.4779 78.0112 24.3765C78.9073 25.2751 79.6141 26.3409 80.0907 27.512C80.5673 28.6831 80.804 29.9363 80.7873 31.1987V50.4735H86.9998V29.4096C86.9998 21.7161 80.8655 15.9155 72.7286 15.9155Z" fill="white"/>
<path d="M31.2355 -0.000102581L0 8.86377L1.09113 12.6296L32.3266 3.76571L31.2355 -0.000102581Z" fill="#A7CE2E"/>
<path d="M81.4957 72.0896C80.3948 72.0896 79.5186 71.7123 78.8672 70.9578C78.2158 70.2033 77.8889 69.1928 77.8867 67.9265V61.2347H80.4436V67.5245C80.4436 68.3274 80.6101 68.9424 80.943 69.3697C81.1123 69.5828 81.3309 69.7526 81.5803 69.8647C81.8297 69.9768 82.1027 70.0279 82.3763 70.0138C82.6616 70.0234 82.9453 69.9676 83.2052 69.8507C83.4651 69.7338 83.6942 69.5591 83.8745 69.34C84.2518 68.8897 84.4411 68.2912 84.4422 67.5443V61.2347H86.9974V71.8243H84.7734L84.6286 70.5789C84.2926 71.0631 83.8332 71.4507 83.2969 71.7024C82.7332 71.9646 82.1168 72.0969 81.494 72.0896H81.4957ZM83.3485 59.8064H81.1012L83.3069 56.6235H86.0902L83.3485 59.8064Z" fill="white"/>
</svg>
